<mxfile host="app.diagrams.net" agent="Mozilla/5.0 (X11; Linux x86_64; rv:137.0) Gecko/20100101 Firefox/137.0" version="24.7.17">
  <diagram name="Page-1" id="MFZSML2b7RBqSPVqTth8">
    <mxGraphModel dx="1434" dy="765" grid="1" gridSize="10" guides="1" tooltips="1" connect="1" arrows="1" fold="1" page="1" pageScale="1" pageWidth="850" pageHeight="1100" math="0" shadow="0">
      <root>
        <mxCell id="0" />
        <mxCell id="1" parent="0" />
        <mxCell id="_YqkamFO0dzWzGDFTxBu-1" style="edgeStyle=orthogonalEdgeStyle;rounded=0;orthogonalLoop=1;jettySize=auto;html=1;entryX=0.5;entryY=0;entryDx=0;entryDy=0;" edge="1" parent="1" source="_YqkamFO0dzWzGDFTxBu-3" target="_YqkamFO0dzWzGDFTxBu-47">
          <mxGeometry relative="1" as="geometry" />
        </mxCell>
        <mxCell id="_YqkamFO0dzWzGDFTxBu-2" value="User chooses available slot" style="edgeLabel;html=1;align=center;verticalAlign=middle;resizable=0;points=[];" vertex="1" connectable="0" parent="_YqkamFO0dzWzGDFTxBu-1">
          <mxGeometry x="-0.0695" y="-1" relative="1" as="geometry">
            <mxPoint as="offset" />
          </mxGeometry>
        </mxCell>
        <mxCell id="_YqkamFO0dzWzGDFTxBu-3" value="" style="rounded=0;whiteSpace=wrap;html=1;" vertex="1" parent="1">
          <mxGeometry x="70" y="410" width="440" height="240" as="geometry" />
        </mxCell>
        <mxCell id="_YqkamFO0dzWzGDFTxBu-4" value="&lt;font style=&quot;font-size: 20px;&quot;&gt;Details of the service&lt;/font&gt;" style="text;html=1;align=left;verticalAlign=middle;whiteSpace=wrap;rounded=0;" vertex="1" parent="1">
          <mxGeometry x="70" y="380" width="220" height="30" as="geometry" />
        </mxCell>
        <mxCell id="_YqkamFO0dzWzGDFTxBu-5" value="&lt;span style=&quot;font-size: 15px;&quot;&gt;&lt;b&gt;Service 1&lt;/b&gt;&lt;/span&gt;" style="text;html=1;align=left;verticalAlign=middle;whiteSpace=wrap;rounded=0;" vertex="1" parent="1">
          <mxGeometry x="80" y="420" width="200" height="30" as="geometry" />
        </mxCell>
        <mxCell id="_YqkamFO0dzWzGDFTxBu-6" value="&lt;span style=&quot;font-size: 15px;&quot;&gt;&lt;b&gt;Price: x$&lt;/b&gt;&lt;/span&gt;" style="text;html=1;align=left;verticalAlign=middle;whiteSpace=wrap;rounded=0;" vertex="1" parent="1">
          <mxGeometry x="80" y="445.63" width="240" height="30" as="geometry" />
        </mxCell>
        <mxCell id="_YqkamFO0dzWzGDFTxBu-7" value="&lt;span style=&quot;font-size: 15px;&quot;&gt;&lt;b&gt;Adress: Street X/Y, City&lt;/b&gt;&lt;/span&gt;" style="text;html=1;align=left;verticalAlign=middle;whiteSpace=wrap;rounded=0;" vertex="1" parent="1">
          <mxGeometry x="80" y="471.25" width="220" height="30" as="geometry" />
        </mxCell>
        <mxCell id="_YqkamFO0dzWzGDFTxBu-8" value="Mon" style="text;html=1;align=center;verticalAlign=middle;whiteSpace=wrap;rounded=0;" vertex="1" parent="1">
          <mxGeometry x="105" y="510" width="60" height="30" as="geometry" />
        </mxCell>
        <mxCell id="_YqkamFO0dzWzGDFTxBu-9" value="Tues" style="text;html=1;align=center;verticalAlign=middle;whiteSpace=wrap;rounded=0;" vertex="1" parent="1">
          <mxGeometry x="155" y="510" width="60" height="30" as="geometry" />
        </mxCell>
        <mxCell id="_YqkamFO0dzWzGDFTxBu-10" value="Wed" style="text;html=1;align=center;verticalAlign=middle;whiteSpace=wrap;rounded=0;" vertex="1" parent="1">
          <mxGeometry x="215" y="510" width="60" height="30" as="geometry" />
        </mxCell>
        <mxCell id="_YqkamFO0dzWzGDFTxBu-11" value="Thurs" style="text;html=1;align=center;verticalAlign=middle;whiteSpace=wrap;rounded=0;" vertex="1" parent="1">
          <mxGeometry x="265" y="510" width="60" height="30" as="geometry" />
        </mxCell>
        <mxCell id="_YqkamFO0dzWzGDFTxBu-12" value="Fri" style="text;html=1;align=center;verticalAlign=middle;whiteSpace=wrap;rounded=0;" vertex="1" parent="1">
          <mxGeometry x="315" y="510" width="60" height="30" as="geometry" />
        </mxCell>
        <mxCell id="_YqkamFO0dzWzGDFTxBu-13" value="Sat" style="text;html=1;align=center;verticalAlign=middle;whiteSpace=wrap;rounded=0;" vertex="1" parent="1">
          <mxGeometry x="365" y="510" width="60" height="30" as="geometry" />
        </mxCell>
        <mxCell id="_YqkamFO0dzWzGDFTxBu-14" value="Sun" style="text;html=1;align=center;verticalAlign=middle;whiteSpace=wrap;rounded=0;" vertex="1" parent="1">
          <mxGeometry x="415" y="510" width="60" height="30" as="geometry" />
        </mxCell>
        <mxCell id="_YqkamFO0dzWzGDFTxBu-15" value="9" style="text;html=1;align=center;verticalAlign=middle;whiteSpace=wrap;rounded=0;" vertex="1" parent="1">
          <mxGeometry x="70" y="530" width="60" height="30" as="geometry" />
        </mxCell>
        <mxCell id="_YqkamFO0dzWzGDFTxBu-16" value="11" style="text;html=1;align=center;verticalAlign=middle;whiteSpace=wrap;rounded=0;" vertex="1" parent="1">
          <mxGeometry x="70" y="550" width="60" height="30" as="geometry" />
        </mxCell>
        <mxCell id="_YqkamFO0dzWzGDFTxBu-17" value="13" style="text;html=1;align=center;verticalAlign=middle;whiteSpace=wrap;rounded=0;" vertex="1" parent="1">
          <mxGeometry x="70" y="570" width="60" height="30" as="geometry" />
        </mxCell>
        <mxCell id="_YqkamFO0dzWzGDFTxBu-18" value="15" style="text;html=1;align=center;verticalAlign=middle;whiteSpace=wrap;rounded=0;" vertex="1" parent="1">
          <mxGeometry x="70" y="590" width="60" height="30" as="geometry" />
        </mxCell>
        <mxCell id="_YqkamFO0dzWzGDFTxBu-19" value="x" style="text;html=1;align=center;verticalAlign=middle;whiteSpace=wrap;rounded=0;" vertex="1" parent="1">
          <mxGeometry x="105" y="530" width="60" height="30" as="geometry" />
        </mxCell>
        <mxCell id="_YqkamFO0dzWzGDFTxBu-20" value="x" style="text;html=1;align=center;verticalAlign=middle;whiteSpace=wrap;rounded=0;" vertex="1" parent="1">
          <mxGeometry x="155" y="530" width="60" height="30" as="geometry" />
        </mxCell>
        <mxCell id="_YqkamFO0dzWzGDFTxBu-21" value="x" style="text;html=1;align=center;verticalAlign=middle;whiteSpace=wrap;rounded=0;" vertex="1" parent="1">
          <mxGeometry x="215" y="530" width="60" height="30" as="geometry" />
        </mxCell>
        <mxCell id="_YqkamFO0dzWzGDFTxBu-22" value="x" style="text;html=1;align=center;verticalAlign=middle;whiteSpace=wrap;rounded=0;" vertex="1" parent="1">
          <mxGeometry x="265" y="530" width="60" height="30" as="geometry" />
        </mxCell>
        <mxCell id="_YqkamFO0dzWzGDFTxBu-23" value="x" style="text;html=1;align=center;verticalAlign=middle;whiteSpace=wrap;rounded=0;" vertex="1" parent="1">
          <mxGeometry x="315" y="530" width="60" height="30" as="geometry" />
        </mxCell>
        <mxCell id="_YqkamFO0dzWzGDFTxBu-24" value="x" style="text;html=1;align=center;verticalAlign=middle;whiteSpace=wrap;rounded=0;" vertex="1" parent="1">
          <mxGeometry x="365" y="530" width="60" height="30" as="geometry" />
        </mxCell>
        <mxCell id="_YqkamFO0dzWzGDFTxBu-25" value="x" style="text;html=1;align=center;verticalAlign=middle;whiteSpace=wrap;rounded=0;" vertex="1" parent="1">
          <mxGeometry x="415" y="530" width="60" height="30" as="geometry" />
        </mxCell>
        <mxCell id="_YqkamFO0dzWzGDFTxBu-26" value="x" style="text;html=1;align=center;verticalAlign=middle;whiteSpace=wrap;rounded=0;" vertex="1" parent="1">
          <mxGeometry x="105" y="550" width="60" height="30" as="geometry" />
        </mxCell>
        <mxCell id="_YqkamFO0dzWzGDFTxBu-27" value="av." style="text;html=1;align=center;verticalAlign=middle;whiteSpace=wrap;rounded=0;" vertex="1" parent="1">
          <mxGeometry x="155" y="550" width="60" height="30" as="geometry" />
        </mxCell>
        <mxCell id="_YqkamFO0dzWzGDFTxBu-28" value="x" style="text;html=1;align=center;verticalAlign=middle;whiteSpace=wrap;rounded=0;" vertex="1" parent="1">
          <mxGeometry x="265" y="550" width="60" height="30" as="geometry" />
        </mxCell>
        <mxCell id="_YqkamFO0dzWzGDFTxBu-29" value="x" style="text;html=1;align=center;verticalAlign=middle;whiteSpace=wrap;rounded=0;" vertex="1" parent="1">
          <mxGeometry x="365" y="550" width="60" height="30" as="geometry" />
        </mxCell>
        <mxCell id="_YqkamFO0dzWzGDFTxBu-30" value="x" style="text;html=1;align=center;verticalAlign=middle;whiteSpace=wrap;rounded=0;" vertex="1" parent="1">
          <mxGeometry x="415" y="550" width="60" height="30" as="geometry" />
        </mxCell>
        <mxCell id="_YqkamFO0dzWzGDFTxBu-31" value="x" style="text;html=1;align=center;verticalAlign=middle;whiteSpace=wrap;rounded=0;" vertex="1" parent="1">
          <mxGeometry x="105" y="570" width="60" height="30" as="geometry" />
        </mxCell>
        <mxCell id="_YqkamFO0dzWzGDFTxBu-32" value="x" style="text;html=1;align=center;verticalAlign=middle;whiteSpace=wrap;rounded=0;" vertex="1" parent="1">
          <mxGeometry x="155" y="570" width="60" height="30" as="geometry" />
        </mxCell>
        <mxCell id="_YqkamFO0dzWzGDFTxBu-33" value="x" style="text;html=1;align=center;verticalAlign=middle;whiteSpace=wrap;rounded=0;" vertex="1" parent="1">
          <mxGeometry x="265" y="570" width="60" height="30" as="geometry" />
        </mxCell>
        <mxCell id="_YqkamFO0dzWzGDFTxBu-34" value="x" style="text;html=1;align=center;verticalAlign=middle;whiteSpace=wrap;rounded=0;" vertex="1" parent="1">
          <mxGeometry x="315" y="570" width="60" height="30" as="geometry" />
        </mxCell>
        <mxCell id="_YqkamFO0dzWzGDFTxBu-35" value="x" style="text;html=1;align=center;verticalAlign=middle;whiteSpace=wrap;rounded=0;" vertex="1" parent="1">
          <mxGeometry x="365" y="570" width="60" height="30" as="geometry" />
        </mxCell>
        <mxCell id="_YqkamFO0dzWzGDFTxBu-36" value="x" style="text;html=1;align=center;verticalAlign=middle;whiteSpace=wrap;rounded=0;" vertex="1" parent="1">
          <mxGeometry x="415" y="570" width="60" height="30" as="geometry" />
        </mxCell>
        <mxCell id="_YqkamFO0dzWzGDFTxBu-37" value="x" style="text;html=1;align=center;verticalAlign=middle;whiteSpace=wrap;rounded=0;" vertex="1" parent="1">
          <mxGeometry x="105" y="590" width="60" height="30" as="geometry" />
        </mxCell>
        <mxCell id="_YqkamFO0dzWzGDFTxBu-38" value="x" style="text;html=1;align=center;verticalAlign=middle;whiteSpace=wrap;rounded=0;" vertex="1" parent="1">
          <mxGeometry x="155" y="590" width="60" height="30" as="geometry" />
        </mxCell>
        <mxCell id="_YqkamFO0dzWzGDFTxBu-39" value="x" style="text;html=1;align=center;verticalAlign=middle;whiteSpace=wrap;rounded=0;" vertex="1" parent="1">
          <mxGeometry x="265" y="590" width="60" height="30" as="geometry" />
        </mxCell>
        <mxCell id="_YqkamFO0dzWzGDFTxBu-40" value="x" style="text;html=1;align=center;verticalAlign=middle;whiteSpace=wrap;rounded=0;" vertex="1" parent="1">
          <mxGeometry x="315" y="590" width="60" height="30" as="geometry" />
        </mxCell>
        <mxCell id="_YqkamFO0dzWzGDFTxBu-41" value="x" style="text;html=1;align=center;verticalAlign=middle;whiteSpace=wrap;rounded=0;" vertex="1" parent="1">
          <mxGeometry x="365" y="590" width="60" height="30" as="geometry" />
        </mxCell>
        <mxCell id="_YqkamFO0dzWzGDFTxBu-42" value="x" style="text;html=1;align=center;verticalAlign=middle;whiteSpace=wrap;rounded=0;" vertex="1" parent="1">
          <mxGeometry x="415" y="590" width="60" height="30" as="geometry" />
        </mxCell>
        <mxCell id="_YqkamFO0dzWzGDFTxBu-43" value="av." style="text;html=1;align=center;verticalAlign=middle;whiteSpace=wrap;rounded=0;" vertex="1" parent="1">
          <mxGeometry x="215" y="550" width="60" height="30" as="geometry" />
        </mxCell>
        <mxCell id="_YqkamFO0dzWzGDFTxBu-44" value="av." style="text;html=1;align=center;verticalAlign=middle;whiteSpace=wrap;rounded=0;" vertex="1" parent="1">
          <mxGeometry x="215" y="570" width="60" height="30" as="geometry" />
        </mxCell>
        <mxCell id="_YqkamFO0dzWzGDFTxBu-45" value="av." style="text;html=1;align=center;verticalAlign=middle;whiteSpace=wrap;rounded=0;" vertex="1" parent="1">
          <mxGeometry x="215" y="590" width="60" height="30" as="geometry" />
        </mxCell>
        <mxCell id="_YqkamFO0dzWzGDFTxBu-46" value="av." style="text;html=1;align=center;verticalAlign=middle;whiteSpace=wrap;rounded=0;" vertex="1" parent="1">
          <mxGeometry x="315" y="550" width="60" height="30" as="geometry" />
        </mxCell>
        <mxCell id="_YqkamFO0dzWzGDFTxBu-47" value="" style="rounded=0;whiteSpace=wrap;html=1;" vertex="1" parent="1">
          <mxGeometry x="70" y="710" width="440" height="240" as="geometry" />
        </mxCell>
        <mxCell id="_YqkamFO0dzWzGDFTxBu-48" value="&lt;font style=&quot;font-size: 20px;&quot;&gt;Details of the service&lt;/font&gt;" style="text;html=1;align=left;verticalAlign=middle;whiteSpace=wrap;rounded=0;" vertex="1" parent="1">
          <mxGeometry x="70" y="680" width="200" height="30" as="geometry" />
        </mxCell>
        <mxCell id="_YqkamFO0dzWzGDFTxBu-49" value="&lt;span style=&quot;font-size: 15px;&quot;&gt;&lt;b&gt;Service 1&lt;/b&gt;&lt;/span&gt;" style="text;html=1;align=left;verticalAlign=middle;whiteSpace=wrap;rounded=0;" vertex="1" parent="1">
          <mxGeometry x="80" y="720" width="200" height="30" as="geometry" />
        </mxCell>
        <mxCell id="_YqkamFO0dzWzGDFTxBu-50" value="&lt;span style=&quot;font-size: 15px;&quot;&gt;&lt;b&gt;Price: x$&lt;/b&gt;&lt;/span&gt;" style="text;html=1;align=left;verticalAlign=middle;whiteSpace=wrap;rounded=0;" vertex="1" parent="1">
          <mxGeometry x="80" y="745.63" width="240" height="30" as="geometry" />
        </mxCell>
        <mxCell id="_YqkamFO0dzWzGDFTxBu-51" value="&lt;span style=&quot;font-size: 15px;&quot;&gt;&lt;b&gt;Adress: Street X/Y, City&lt;/b&gt;&lt;/span&gt;" style="text;html=1;align=left;verticalAlign=middle;whiteSpace=wrap;rounded=0;" vertex="1" parent="1">
          <mxGeometry x="80" y="771.25" width="220" height="30" as="geometry" />
        </mxCell>
        <mxCell id="_YqkamFO0dzWzGDFTxBu-52" value="Mon" style="text;html=1;align=center;verticalAlign=middle;whiteSpace=wrap;rounded=0;" vertex="1" parent="1">
          <mxGeometry x="105" y="810" width="60" height="30" as="geometry" />
        </mxCell>
        <mxCell id="_YqkamFO0dzWzGDFTxBu-53" value="Tues" style="text;html=1;align=center;verticalAlign=middle;whiteSpace=wrap;rounded=0;" vertex="1" parent="1">
          <mxGeometry x="155" y="810" width="60" height="30" as="geometry" />
        </mxCell>
        <mxCell id="_YqkamFO0dzWzGDFTxBu-54" value="Wed" style="text;html=1;align=center;verticalAlign=middle;whiteSpace=wrap;rounded=0;" vertex="1" parent="1">
          <mxGeometry x="215" y="810" width="60" height="30" as="geometry" />
        </mxCell>
        <mxCell id="_YqkamFO0dzWzGDFTxBu-55" value="Thurs" style="text;html=1;align=center;verticalAlign=middle;whiteSpace=wrap;rounded=0;" vertex="1" parent="1">
          <mxGeometry x="265" y="810" width="60" height="30" as="geometry" />
        </mxCell>
        <mxCell id="_YqkamFO0dzWzGDFTxBu-56" value="Fri" style="text;html=1;align=center;verticalAlign=middle;whiteSpace=wrap;rounded=0;" vertex="1" parent="1">
          <mxGeometry x="315" y="810" width="60" height="30" as="geometry" />
        </mxCell>
        <mxCell id="_YqkamFO0dzWzGDFTxBu-57" value="Sat" style="text;html=1;align=center;verticalAlign=middle;whiteSpace=wrap;rounded=0;" vertex="1" parent="1">
          <mxGeometry x="365" y="810" width="60" height="30" as="geometry" />
        </mxCell>
        <mxCell id="_YqkamFO0dzWzGDFTxBu-58" value="Sun" style="text;html=1;align=center;verticalAlign=middle;whiteSpace=wrap;rounded=0;" vertex="1" parent="1">
          <mxGeometry x="415" y="810" width="60" height="30" as="geometry" />
        </mxCell>
        <mxCell id="_YqkamFO0dzWzGDFTxBu-59" value="9" style="text;html=1;align=center;verticalAlign=middle;whiteSpace=wrap;rounded=0;" vertex="1" parent="1">
          <mxGeometry x="70" y="830" width="60" height="30" as="geometry" />
        </mxCell>
        <mxCell id="_YqkamFO0dzWzGDFTxBu-60" value="11" style="text;html=1;align=center;verticalAlign=middle;whiteSpace=wrap;rounded=0;" vertex="1" parent="1">
          <mxGeometry x="70" y="850" width="60" height="30" as="geometry" />
        </mxCell>
        <mxCell id="_YqkamFO0dzWzGDFTxBu-61" value="13" style="text;html=1;align=center;verticalAlign=middle;whiteSpace=wrap;rounded=0;" vertex="1" parent="1">
          <mxGeometry x="70" y="870" width="60" height="30" as="geometry" />
        </mxCell>
        <mxCell id="_YqkamFO0dzWzGDFTxBu-62" value="15" style="text;html=1;align=center;verticalAlign=middle;whiteSpace=wrap;rounded=0;" vertex="1" parent="1">
          <mxGeometry x="70" y="890" width="60" height="30" as="geometry" />
        </mxCell>
        <mxCell id="_YqkamFO0dzWzGDFTxBu-63" value="x" style="text;html=1;align=center;verticalAlign=middle;whiteSpace=wrap;rounded=0;" vertex="1" parent="1">
          <mxGeometry x="105" y="830" width="60" height="30" as="geometry" />
        </mxCell>
        <mxCell id="_YqkamFO0dzWzGDFTxBu-64" value="x" style="text;html=1;align=center;verticalAlign=middle;whiteSpace=wrap;rounded=0;" vertex="1" parent="1">
          <mxGeometry x="155" y="830" width="60" height="30" as="geometry" />
        </mxCell>
        <mxCell id="_YqkamFO0dzWzGDFTxBu-65" value="x" style="text;html=1;align=center;verticalAlign=middle;whiteSpace=wrap;rounded=0;" vertex="1" parent="1">
          <mxGeometry x="215" y="830" width="60" height="30" as="geometry" />
        </mxCell>
        <mxCell id="_YqkamFO0dzWzGDFTxBu-66" value="x" style="text;html=1;align=center;verticalAlign=middle;whiteSpace=wrap;rounded=0;" vertex="1" parent="1">
          <mxGeometry x="265" y="830" width="60" height="30" as="geometry" />
        </mxCell>
        <mxCell id="_YqkamFO0dzWzGDFTxBu-67" value="x" style="text;html=1;align=center;verticalAlign=middle;whiteSpace=wrap;rounded=0;" vertex="1" parent="1">
          <mxGeometry x="315" y="830" width="60" height="30" as="geometry" />
        </mxCell>
        <mxCell id="_YqkamFO0dzWzGDFTxBu-68" value="x" style="text;html=1;align=center;verticalAlign=middle;whiteSpace=wrap;rounded=0;" vertex="1" parent="1">
          <mxGeometry x="365" y="830" width="60" height="30" as="geometry" />
        </mxCell>
        <mxCell id="_YqkamFO0dzWzGDFTxBu-69" value="x" style="text;html=1;align=center;verticalAlign=middle;whiteSpace=wrap;rounded=0;" vertex="1" parent="1">
          <mxGeometry x="415" y="830" width="60" height="30" as="geometry" />
        </mxCell>
        <mxCell id="_YqkamFO0dzWzGDFTxBu-70" value="x" style="text;html=1;align=center;verticalAlign=middle;whiteSpace=wrap;rounded=0;" vertex="1" parent="1">
          <mxGeometry x="105" y="850" width="60" height="30" as="geometry" />
        </mxCell>
        <mxCell id="_YqkamFO0dzWzGDFTxBu-71" value="av." style="text;html=1;align=center;verticalAlign=middle;whiteSpace=wrap;rounded=0;" vertex="1" parent="1">
          <mxGeometry x="155" y="850" width="60" height="30" as="geometry" />
        </mxCell>
        <mxCell id="_YqkamFO0dzWzGDFTxBu-72" value="x" style="text;html=1;align=center;verticalAlign=middle;whiteSpace=wrap;rounded=0;" vertex="1" parent="1">
          <mxGeometry x="265" y="850" width="60" height="30" as="geometry" />
        </mxCell>
        <mxCell id="_YqkamFO0dzWzGDFTxBu-73" value="x" style="text;html=1;align=center;verticalAlign=middle;whiteSpace=wrap;rounded=0;" vertex="1" parent="1">
          <mxGeometry x="365" y="850" width="60" height="30" as="geometry" />
        </mxCell>
        <mxCell id="_YqkamFO0dzWzGDFTxBu-74" value="x" style="text;html=1;align=center;verticalAlign=middle;whiteSpace=wrap;rounded=0;" vertex="1" parent="1">
          <mxGeometry x="415" y="850" width="60" height="30" as="geometry" />
        </mxCell>
        <mxCell id="_YqkamFO0dzWzGDFTxBu-75" value="x" style="text;html=1;align=center;verticalAlign=middle;whiteSpace=wrap;rounded=0;" vertex="1" parent="1">
          <mxGeometry x="105" y="870" width="60" height="30" as="geometry" />
        </mxCell>
        <mxCell id="_YqkamFO0dzWzGDFTxBu-76" value="x" style="text;html=1;align=center;verticalAlign=middle;whiteSpace=wrap;rounded=0;" vertex="1" parent="1">
          <mxGeometry x="155" y="870" width="60" height="30" as="geometry" />
        </mxCell>
        <mxCell id="_YqkamFO0dzWzGDFTxBu-77" value="x" style="text;html=1;align=center;verticalAlign=middle;whiteSpace=wrap;rounded=0;" vertex="1" parent="1">
          <mxGeometry x="265" y="870" width="60" height="30" as="geometry" />
        </mxCell>
        <mxCell id="_YqkamFO0dzWzGDFTxBu-78" value="x" style="text;html=1;align=center;verticalAlign=middle;whiteSpace=wrap;rounded=0;" vertex="1" parent="1">
          <mxGeometry x="315" y="870" width="60" height="30" as="geometry" />
        </mxCell>
        <mxCell id="_YqkamFO0dzWzGDFTxBu-79" value="x" style="text;html=1;align=center;verticalAlign=middle;whiteSpace=wrap;rounded=0;" vertex="1" parent="1">
          <mxGeometry x="365" y="870" width="60" height="30" as="geometry" />
        </mxCell>
        <mxCell id="_YqkamFO0dzWzGDFTxBu-80" value="x" style="text;html=1;align=center;verticalAlign=middle;whiteSpace=wrap;rounded=0;" vertex="1" parent="1">
          <mxGeometry x="415" y="870" width="60" height="30" as="geometry" />
        </mxCell>
        <mxCell id="_YqkamFO0dzWzGDFTxBu-81" value="x" style="text;html=1;align=center;verticalAlign=middle;whiteSpace=wrap;rounded=0;" vertex="1" parent="1">
          <mxGeometry x="105" y="890" width="60" height="30" as="geometry" />
        </mxCell>
        <mxCell id="_YqkamFO0dzWzGDFTxBu-82" value="x" style="text;html=1;align=center;verticalAlign=middle;whiteSpace=wrap;rounded=0;" vertex="1" parent="1">
          <mxGeometry x="155" y="890" width="60" height="30" as="geometry" />
        </mxCell>
        <mxCell id="_YqkamFO0dzWzGDFTxBu-83" value="x" style="text;html=1;align=center;verticalAlign=middle;whiteSpace=wrap;rounded=0;" vertex="1" parent="1">
          <mxGeometry x="265" y="890" width="60" height="30" as="geometry" />
        </mxCell>
        <mxCell id="_YqkamFO0dzWzGDFTxBu-84" value="x" style="text;html=1;align=center;verticalAlign=middle;whiteSpace=wrap;rounded=0;" vertex="1" parent="1">
          <mxGeometry x="315" y="890" width="60" height="30" as="geometry" />
        </mxCell>
        <mxCell id="_YqkamFO0dzWzGDFTxBu-85" value="x" style="text;html=1;align=center;verticalAlign=middle;whiteSpace=wrap;rounded=0;" vertex="1" parent="1">
          <mxGeometry x="365" y="890" width="60" height="30" as="geometry" />
        </mxCell>
        <mxCell id="_YqkamFO0dzWzGDFTxBu-86" value="x" style="text;html=1;align=center;verticalAlign=middle;whiteSpace=wrap;rounded=0;" vertex="1" parent="1">
          <mxGeometry x="415" y="890" width="60" height="30" as="geometry" />
        </mxCell>
        <mxCell id="_YqkamFO0dzWzGDFTxBu-87" value="&lt;b&gt;av.&lt;/b&gt;" style="text;html=1;align=center;verticalAlign=middle;whiteSpace=wrap;rounded=0;fontColor=#000000;" vertex="1" parent="1">
          <mxGeometry x="215" y="850" width="60" height="30" as="geometry" />
        </mxCell>
        <mxCell id="_YqkamFO0dzWzGDFTxBu-88" value="av." style="text;html=1;align=center;verticalAlign=middle;whiteSpace=wrap;rounded=0;" vertex="1" parent="1">
          <mxGeometry x="215" y="870" width="60" height="30" as="geometry" />
        </mxCell>
        <mxCell id="_YqkamFO0dzWzGDFTxBu-89" value="av." style="text;html=1;align=center;verticalAlign=middle;whiteSpace=wrap;rounded=0;" vertex="1" parent="1">
          <mxGeometry x="215" y="890" width="60" height="30" as="geometry" />
        </mxCell>
        <mxCell id="_YqkamFO0dzWzGDFTxBu-90" value="av." style="text;html=1;align=center;verticalAlign=middle;whiteSpace=wrap;rounded=0;" vertex="1" parent="1">
          <mxGeometry x="315" y="850" width="60" height="30" as="geometry" />
        </mxCell>
        <mxCell id="_YqkamFO0dzWzGDFTxBu-91" value="" style="endArrow=classic;html=1;rounded=0;exitX=1;exitY=0.5;exitDx=0;exitDy=0;entryX=1;entryY=1;entryDx=0;entryDy=0;" edge="1" parent="1" target="_YqkamFO0dzWzGDFTxBu-4">
          <mxGeometry width="50" height="50" relative="1" as="geometry">
            <mxPoint x="509.9999999999998" y="540.63" as="sourcePoint" />
            <mxPoint x="290" y="380.63" as="targetPoint" />
            <Array as="points">
              <mxPoint x="540" y="540.63" />
              <mxPoint x="540" y="381" />
              <mxPoint x="290" y="380" />
            </Array>
          </mxGeometry>
        </mxCell>
        <mxCell id="_YqkamFO0dzWzGDFTxBu-92" value="User chooses&amp;nbsp;&lt;div&gt;unavailable slot&lt;/div&gt;" style="edgeLabel;html=1;align=center;verticalAlign=middle;resizable=0;points=[];" vertex="1" connectable="0" parent="_YqkamFO0dzWzGDFTxBu-91">
          <mxGeometry x="-0.5605" y="-1" relative="1" as="geometry">
            <mxPoint as="offset" />
          </mxGeometry>
        </mxCell>
        <mxCell id="_YqkamFO0dzWzGDFTxBu-93" value="&lt;b&gt;Continue&lt;/b&gt;" style="rounded=0;whiteSpace=wrap;html=1;" vertex="1" parent="1">
          <mxGeometry x="227.5" y="920" width="125" height="20" as="geometry" />
        </mxCell>
        <mxCell id="_YqkamFO0dzWzGDFTxBu-94" style="edgeStyle=orthogonalEdgeStyle;rounded=0;orthogonalLoop=1;jettySize=auto;html=1;" edge="1" parent="1" source="_YqkamFO0dzWzGDFTxBu-96" target="_YqkamFO0dzWzGDFTxBu-105">
          <mxGeometry relative="1" as="geometry" />
        </mxCell>
        <mxCell id="_YqkamFO0dzWzGDFTxBu-95" value="User confirms&lt;br&gt;the details" style="edgeLabel;html=1;align=center;verticalAlign=middle;resizable=0;points=[];" vertex="1" connectable="0" parent="_YqkamFO0dzWzGDFTxBu-94">
          <mxGeometry x="-0.0774" y="1" relative="1" as="geometry">
            <mxPoint as="offset" />
          </mxGeometry>
        </mxCell>
        <mxCell id="_YqkamFO0dzWzGDFTxBu-96" value="" style="rounded=0;whiteSpace=wrap;html=1;" vertex="1" parent="1">
          <mxGeometry x="580" y="410" width="440" height="240" as="geometry" />
        </mxCell>
        <mxCell id="_YqkamFO0dzWzGDFTxBu-97" value="&lt;font style=&quot;font-size: 20px;&quot;&gt;Details of the order&lt;/font&gt;" style="text;html=1;align=left;verticalAlign=middle;whiteSpace=wrap;rounded=0;" vertex="1" parent="1">
          <mxGeometry x="580" y="380" width="200" height="30" as="geometry" />
        </mxCell>
        <mxCell id="_YqkamFO0dzWzGDFTxBu-98" value="&lt;span style=&quot;font-size: 15px;&quot;&gt;&lt;b&gt;Service 1&lt;/b&gt;&lt;/span&gt;" style="text;html=1;align=left;verticalAlign=middle;whiteSpace=wrap;rounded=0;" vertex="1" parent="1">
          <mxGeometry x="590" y="420" width="200" height="30" as="geometry" />
        </mxCell>
        <mxCell id="_YqkamFO0dzWzGDFTxBu-99" value="&lt;span style=&quot;font-size: 15px;&quot;&gt;&lt;b&gt;Price: x$&lt;/b&gt;&lt;/span&gt;" style="text;html=1;align=left;verticalAlign=middle;whiteSpace=wrap;rounded=0;" vertex="1" parent="1">
          <mxGeometry x="590" y="445.63" width="240" height="30" as="geometry" />
        </mxCell>
        <mxCell id="_YqkamFO0dzWzGDFTxBu-100" value="&lt;span style=&quot;font-size: 15px;&quot;&gt;&lt;b&gt;Adress: Street X/Y, City&lt;/b&gt;&lt;/span&gt;" style="text;html=1;align=left;verticalAlign=middle;whiteSpace=wrap;rounded=0;" vertex="1" parent="1">
          <mxGeometry x="590" y="471.25" width="220" height="30" as="geometry" />
        </mxCell>
        <mxCell id="_YqkamFO0dzWzGDFTxBu-101" value="&lt;b&gt;CONFIRM&lt;/b&gt;" style="rounded=0;whiteSpace=wrap;html=1;" vertex="1" parent="1">
          <mxGeometry x="737.5" y="610" width="125" height="20" as="geometry" />
        </mxCell>
        <mxCell id="_YqkamFO0dzWzGDFTxBu-102" value="&lt;span style=&quot;font-size: 15px;&quot;&gt;&lt;b&gt;Time: dd:mm:yy hh:mm&lt;/b&gt;&lt;/span&gt;" style="text;html=1;align=left;verticalAlign=middle;whiteSpace=wrap;rounded=0;" vertex="1" parent="1">
          <mxGeometry x="590" y="500" width="220" height="30" as="geometry" />
        </mxCell>
        <mxCell id="_YqkamFO0dzWzGDFTxBu-103" style="edgeStyle=orthogonalEdgeStyle;rounded=0;orthogonalLoop=1;jettySize=auto;html=1;entryX=0.001;entryY=0.416;entryDx=0;entryDy=0;entryPerimeter=0;" edge="1" parent="1" source="_YqkamFO0dzWzGDFTxBu-47" target="_YqkamFO0dzWzGDFTxBu-96">
          <mxGeometry relative="1" as="geometry" />
        </mxCell>
        <mxCell id="_YqkamFO0dzWzGDFTxBu-104" value="User clicks&lt;div&gt;continue&lt;/div&gt;" style="edgeLabel;html=1;align=center;verticalAlign=middle;resizable=0;points=[];" vertex="1" connectable="0" parent="_YqkamFO0dzWzGDFTxBu-103">
          <mxGeometry x="-0.0007" y="4" relative="1" as="geometry">
            <mxPoint as="offset" />
          </mxGeometry>
        </mxCell>
        <mxCell id="_YqkamFO0dzWzGDFTxBu-105" value="" style="rounded=0;whiteSpace=wrap;html=1;" vertex="1" parent="1">
          <mxGeometry x="580" y="710" width="440" height="240" as="geometry" />
        </mxCell>
        <mxCell id="_YqkamFO0dzWzGDFTxBu-106" value="&lt;b&gt;Pay&lt;/b&gt;" style="rounded=0;whiteSpace=wrap;html=1;" vertex="1" parent="1">
          <mxGeometry x="737.5" y="910" width="125" height="20" as="geometry" />
        </mxCell>
        <mxCell id="_YqkamFO0dzWzGDFTxBu-107" value="&lt;font style=&quot;font-size: 20px;&quot;&gt;Payment methods&lt;/font&gt;" style="text;html=1;align=left;verticalAlign=middle;whiteSpace=wrap;rounded=0;" vertex="1" parent="1">
          <mxGeometry x="580" y="680" width="200" height="30" as="geometry" />
        </mxCell>
        <mxCell id="_YqkamFO0dzWzGDFTxBu-108" value="&lt;b&gt;Apple Pay&lt;/b&gt;" style="rounded=0;whiteSpace=wrap;html=1;" vertex="1" parent="1">
          <mxGeometry x="590" y="730.63" width="120" height="60" as="geometry" />
        </mxCell>
        <mxCell id="_YqkamFO0dzWzGDFTxBu-109" value="&lt;b&gt;Visa&lt;/b&gt;" style="rounded=0;whiteSpace=wrap;html=1;" vertex="1" parent="1">
          <mxGeometry x="742.5" y="730.63" width="120" height="60" as="geometry" />
        </mxCell>
        <mxCell id="_YqkamFO0dzWzGDFTxBu-110" value="&lt;b&gt;MasterCard&lt;/b&gt;" style="rounded=0;whiteSpace=wrap;html=1;" vertex="1" parent="1">
          <mxGeometry x="890" y="730.63" width="120" height="60" as="geometry" />
        </mxCell>
        <mxCell id="_YqkamFO0dzWzGDFTxBu-111" value="&lt;b&gt;Google Pay&lt;/b&gt;" style="rounded=0;whiteSpace=wrap;html=1;" vertex="1" parent="1">
          <mxGeometry x="590" y="800" width="120" height="60" as="geometry" />
        </mxCell>
        <mxCell id="_YqkamFO0dzWzGDFTxBu-112" value="&lt;b&gt;Bitcoin&lt;/b&gt;" style="rounded=0;whiteSpace=wrap;html=1;" vertex="1" parent="1">
          <mxGeometry x="742.5" y="801.25" width="120" height="60" as="geometry" />
        </mxCell>
        <mxCell id="_YqkamFO0dzWzGDFTxBu-113" value="&lt;b&gt;Eth&lt;/b&gt;" style="rounded=0;whiteSpace=wrap;html=1;" vertex="1" parent="1">
          <mxGeometry x="890" y="801.25" width="120" height="60" as="geometry" />
        </mxCell>
        <mxCell id="_YqkamFO0dzWzGDFTxBu-114" value="" style="rounded=0;whiteSpace=wrap;html=1;" vertex="1" parent="1">
          <mxGeometry x="1070" y="410" width="440" height="240" as="geometry" />
        </mxCell>
        <mxCell id="_YqkamFO0dzWzGDFTxBu-115" style="edgeStyle=orthogonalEdgeStyle;rounded=0;orthogonalLoop=1;jettySize=auto;html=1;entryX=0;entryY=0.461;entryDx=0;entryDy=0;entryPerimeter=0;" edge="1" parent="1" source="_YqkamFO0dzWzGDFTxBu-105" target="_YqkamFO0dzWzGDFTxBu-114">
          <mxGeometry relative="1" as="geometry" />
        </mxCell>
        <mxCell id="_YqkamFO0dzWzGDFTxBu-116" value="User&lt;br&gt;payed" style="edgeLabel;html=1;align=center;verticalAlign=middle;resizable=0;points=[];" vertex="1" connectable="0" parent="_YqkamFO0dzWzGDFTxBu-115">
          <mxGeometry x="-0.1364" y="-1" relative="1" as="geometry">
            <mxPoint as="offset" />
          </mxGeometry>
        </mxCell>
        <mxCell id="_YqkamFO0dzWzGDFTxBu-117" value="&lt;span style=&quot;font-size: 20px;&quot;&gt;Confirmation page&lt;/span&gt;" style="text;html=1;align=left;verticalAlign=middle;whiteSpace=wrap;rounded=0;" vertex="1" parent="1">
          <mxGeometry x="1070" y="380" width="200" height="30" as="geometry" />
        </mxCell>
        <mxCell id="_YqkamFO0dzWzGDFTxBu-118" value="&lt;span style=&quot;font-size: 15px;&quot;&gt;&lt;b style=&quot;background-color: transparent;&quot;&gt;Service is paid!&lt;br&gt;Waiting for you&lt;/b&gt;&lt;/span&gt;" style="text;html=1;align=center;verticalAlign=middle;whiteSpace=wrap;rounded=0;" vertex="1" parent="1">
          <mxGeometry x="1180" y="510" width="220" height="30" as="geometry" />
        </mxCell>
        <mxCell id="_YqkamFO0dzWzGDFTxBu-119" value="&lt;span style=&quot;color: rgb(236, 236, 236); font-family: &amp;quot;Google Sans&amp;quot;, Arial, sans-serif; font-size: 20px; text-align: start; background-color: rgb(16, 18, 24);&quot;&gt;✓&lt;/span&gt;" style="ellipse;whiteSpace=wrap;html=1;aspect=fixed;" vertex="1" parent="1">
          <mxGeometry x="1260" y="575" width="60" height="60" as="geometry" />
        </mxCell>
      </root>
    </mxGraphModel>
  </diagram>
</mxfile>
